<?xml version="1.0" encoding="UTF-8" standalone="no"?>
<!-- Created with Inkscape (http://www.inkscape.org/) -->

<svg
   xmlns:dc="http://purl.org/dc/elements/1.1/"
   xmlns:cc="http://creativecommons.org/ns#"
   xmlns:rdf="http://www.w3.org/1999/02/22-rdf-syntax-ns#"
   xmlns:svg="http://www.w3.org/2000/svg"
   xmlns="http://www.w3.org/2000/svg"
   xmlns:sodipodi="http://sodipodi.sourceforge.net/DTD/sodipodi-0.dtd"
   xmlns:inkscape="http://www.inkscape.org/namespaces/inkscape"
   width="1625"
   height="255"
   viewBox="0 0 1625 255"
   version="1.1"
   id="SVGRoot"
   inkscape:version="0.92.4 (5da689c313, 2019-01-14)"
   sodipodi:docname="logo_name.svg"
   inkscape:export-filename="C:\code\portfolio\img\logo_name.png"
   inkscape:export-xdpi="57.599998"
   inkscape:export-ydpi="57.599998">
  <defs
     id="defs4518" />
  <sodipodi:namedview
     id="base"
     pagecolor="#ffffff"
     bordercolor="#666666"
     borderopacity="1.0"
     inkscape:pageopacity="0.0"
     inkscape:pageshadow="2"
     inkscape:zoom="0.25098039"
     inkscape:cx="616.42867"
     inkscape:cy="-338.31066"
     inkscape:document-units="px"
     inkscape:current-layer="layer1"
     showgrid="false"
     inkscape:window-width="1920"
     inkscape:window-height="1017"
     inkscape:window-x="-8"
     inkscape:window-y="836"
     inkscape:window-maximized="1"
     inkscape:grid-bbox="true"
     inkscape:pagecheckerboard="true" />
  <metadata
     id="metadata4521">
    <rdf:RDF>
      <cc:Work
         rdf:about="">
        <dc:format>image/svg+xml</dc:format>
        <dc:type
           rdf:resource="http://purl.org/dc/dcmitype/StillImage" />
        <dc:title></dc:title>
      </cc:Work>
    </rdf:RDF>
  </metadata>
  <g
     inkscape:label="Layer 1"
     inkscape:groupmode="layer"
     id="layer1">
    <g
       aria-label="Victor Abrell"
       style="font-style:normal;font-variant:normal;font-weight:normal;font-stretch:normal;font-size:429.69070435px;line-height:1.25;font-family:'Code Bold';-inkscape-font-specification:'Code Bold, ';letter-spacing:0px;word-spacing:0px;fill:#ce4141;fill-opacity:1;stroke:none;stroke-width:10.74226856"
       id="text5083">
      <path
         d="M 181.61644,73.596743 92.097541,252.63454 2.5786438,73.596743 V 1.9816259 H 38.386202 V 65.361005 L 92.097541,172.06753 145.80888,64.644854 V 1.9816259 h 35.80756 z"
         style="font-style:normal;font-variant:normal;font-weight:normal;font-stretch:normal;font-family:'ProFont for Powerline';-inkscape-font-specification:'ProFont for Powerline';fill:#ce4141;fill-opacity:1;stroke-width:10.74226856"
         id="path5085"
         inkscape:connector-curvature="0" />
      <path
         d="m 228.8242,122.66176 q 0,4.22325 -3.01661,7.23986 -2.8155,2.81551 -7.03876,2.81551 -4.22325,0 -7.23986,-2.81551 -2.8155,-3.01661 -2.8155,-7.23986 0,-4.22326 2.8155,-7.03875 3.01661,-3.0166 7.23986,-3.0166 4.22326,0 7.03876,3.0166 3.01661,2.81549 3.01661,7.03875 z m 20.11074,130.71978 H 188.60273 V 233.2708 h 20.11074 v -60.33221 h -20.11074 v -20.11073 h 40.22147 v 80.44294 h 20.11074 z"
         style="font-style:normal;font-variant:normal;font-weight:normal;font-stretch:normal;font-family:'ProFont for Powerline';-inkscape-font-specification:'ProFont for Powerline';fill:#ce4141;fill-opacity:1;stroke-width:6.03322124"
         id="path5087"
         inkscape:connector-curvature="0" />
      <path
         d="m 389.71009,253.38154 h -60.33221 q -16.4908,0 -28.35614,-11.86534 -11.86533,-11.86533 -11.86533,-28.35614 v -20.11073 q 0,-16.4908 11.86533,-28.35614 11.86534,-11.86533 28.35614,-11.86533 h 20.11073 q 16.49081,0 28.35614,11.86533 11.86534,11.86534 11.86534,28.35614 h -20.11074 q 0,-8.2454 -6.03322,-14.07751 -5.83211,-6.03323 -14.07752,-6.03323 h -20.11073 q -8.2454,0 -14.27862,6.03323 -5.83211,5.83211 -5.83211,14.07751 v 20.11073 q 0,8.24541 5.83211,14.27863 6.03322,5.83211 14.27862,5.83211 h 60.33221 z"
         style="font-style:normal;font-variant:normal;font-weight:normal;font-stretch:normal;font-family:'ProFont for Powerline';-inkscape-font-specification:'ProFont for Powerline';fill:#ce4141;fill-opacity:1;stroke-width:6.03322124"
         id="path5089"
         inkscape:connector-curvature="0" />
      <path
         d="m 510.37451,253.38154 h -20.11074 q -16.4908,0 -28.35614,-11.86534 -11.86533,-11.86533 -11.86533,-28.35614 v -40.22147 h -20.11074 v -20.11073 h 20.11074 v -40.22145 h 20.11074 v 40.22145 h 20.11073 v 20.11073 h -20.11073 v 40.22147 q 0,8.24541 5.83211,14.27863 6.03322,5.83211 14.27862,5.83211 h 20.11074 z"
         style="font-style:normal;font-variant:normal;font-weight:normal;font-stretch:normal;font-family:'ProFont for Powerline';-inkscape-font-specification:'ProFont for Powerline';fill:#ce4141;fill-opacity:1;stroke-width:6.03322124"
         id="path5091"
         inkscape:connector-curvature="0" />
      <path
         d="m 631.03889,213.16006 q 0,16.49081 -11.86531,28.35614 -11.86533,11.86534 -28.35614,11.86534 h -20.11073 q -16.49081,0 -28.35614,-11.86534 -11.86534,-11.86533 -11.86534,-28.35614 v -20.11073 q 0,-16.4908 11.86534,-28.35614 11.86533,-11.86533 28.35614,-11.86533 h 20.11073 q 16.49081,0 28.35614,11.86533 11.86531,11.86534 11.86531,28.35614 z m -20.11071,0 v -20.11073 q 0,-8.2454 -6.03322,-14.07751 -5.83212,-6.03323 -14.07752,-6.03323 h -20.11073 q -8.24541,0 -14.27863,6.03323 -5.83211,5.83211 -5.83211,14.07751 v 20.11073 q 0,8.24541 5.83211,14.27863 6.03322,5.83211 14.27863,5.83211 h 20.11073 q 8.2454,0 14.07752,-5.83211 6.03322,-6.03322 6.03322,-14.27863 z"
         style="font-style:normal;font-variant:normal;font-weight:normal;font-stretch:normal;font-family:'ProFont for Powerline';-inkscape-font-specification:'ProFont for Powerline';fill:#ce4141;fill-opacity:1;stroke-width:6.03322124"
         id="path5093"
         inkscape:connector-curvature="0" />
      <path
         d="m 671.2604,152.82786 v 27.55171 l 12.66979,-12.46866 q 15.08301,-15.08305 27.55167,-15.08305 16.69193,0 28.35616,11.86533 11.8653,11.66423 11.8653,28.35614 h -20.1107 q 0,-8.2454 -6.03324,-14.07751 -5.83211,-6.03323 -14.07752,-6.03323 -10.05538,0 -20.1107,10.05537 L 671.2604,203.1047 v 50.27684 H 651.1497 V 152.82786 Z"
         style="font-style:normal;font-variant:normal;font-weight:normal;font-stretch:normal;font-family:'ProFont for Powerline';-inkscape-font-specification:'ProFont for Powerline';fill:#ce4141;fill-opacity:1;stroke-width:6.03322124"
         id="path5095"
         inkscape:connector-curvature="0" />
      <path
         d="m 864.72416,182.42811 v 71.61512 h -35.8076 V 137.66866 L 896.23476,3.3903152 h 44.7595 L 1007.9544,137.66866 v 116.37457 h -35.80754 v -71.61512 z m 53.7113,-143.230236 -53.7113,107.422676 h 107.4227 z"
         style="font-style:normal;font-variant:normal;font-weight:normal;font-stretch:normal;font-family:'ProFont for Powerline';-inkscape-font-specification:'ProFont for Powerline';fill:#ce4141;fill-opacity:1;stroke-width:10.74226856"
         id="path5097"
         inkscape:connector-curvature="0" />
      <path
         d="m 1137.6787,210.70246 q 0,17.48091 -12.5778,30.05864 -12.5778,12.57773 -30.0587,12.57773 h -63.9545 V 104.11158 h 21.3182 v 42.63633 h 42.6363 q 17.4809,0 30.0587,12.57773 12.5778,12.57773 12.5778,30.05864 z m -21.3183,0 v -21.31818 q 0,-8.74046 -6.3954,-14.92273 -6.1823,-6.39546 -14.9228,-6.39546 h -42.6363 v 63.95456 h 42.6363 q 8.7405,0 14.9228,-6.18228 6.3954,-6.39545 6.3954,-15.13591 z"
         style="font-style:normal;font-variant:normal;font-weight:normal;font-stretch:normal;font-family:'ProFont for Powerline';-inkscape-font-specification:'ProFont for Powerline';fill:#ce4141;fill-opacity:1;stroke-width:6.39545536"
         id="path5099"
         inkscape:connector-curvature="0" />
      <path
         d="m 1180.315,146.74791 v 29.20591 l 13.4304,-13.21727 q 15.9887,-15.98864 29.206,-15.98864 17.694,0 30.0586,12.57773 12.5777,12.36455 12.5777,30.05864 h -21.3182 q 0,-8.74046 -6.3954,-14.92273 -6.1823,-6.39546 -14.9227,-6.39546 -10.6591,0 -21.3182,10.6591 l -21.3182,21.31818 v 53.29546 h -21.3182 V 146.74791 Z"
         style="font-style:normal;font-variant:normal;font-weight:normal;font-stretch:normal;font-family:'ProFont for Powerline';-inkscape-font-specification:'ProFont for Powerline';fill:#ce4141;fill-opacity:1;stroke-width:6.39545536"
         id="path5101"
         inkscape:connector-curvature="0" />
      <path
         d="m 1393.4969,253.33883 h -63.9546 q -17.4809,0 -30.0586,-12.57773 -12.5777,-12.57773 -12.5777,-30.05864 v -21.31818 q 0,-17.48091 12.5777,-30.05864 12.5777,-12.57773 30.0586,-12.57773 h 21.3182 q 17.4809,0 30.0587,12.57773 12.5777,12.57773 12.5777,30.05864 v 21.31818 h -85.2728 q 0,8.74046 6.1823,15.13591 6.3955,6.18228 15.1359,6.18228 h 63.9546 z m -21.3182,-63.95455 q 0,-8.74046 -6.3955,-14.92273 -6.1822,-6.39546 -14.9227,-6.39546 h -21.3182 q -8.7404,0 -15.1359,6.39546 -6.1823,6.18227 -6.1823,14.92273 z"
         style="font-style:normal;font-variant:normal;font-weight:normal;font-stretch:normal;font-family:'ProFont for Powerline';-inkscape-font-specification:'ProFont for Powerline';fill:#ce4141;fill-opacity:1;stroke-width:6.39545536"
         id="path5103"
         inkscape:connector-curvature="0" />
      <path
         d="m 1500.0877,253.33883 h -63.9546 v -21.31818 h 21.3183 V 125.42973 h -21.3183 v -21.31815 h 42.6364 v 127.90907 h 21.3182 z"
         style="font-style:normal;font-variant:normal;font-weight:normal;font-stretch:normal;font-family:'ProFont for Powerline';-inkscape-font-specification:'ProFont for Powerline';fill:#ce4141;fill-opacity:1;stroke-width:6.39545536"
         id="path5105"
         inkscape:connector-curvature="0" />
      <path
         d="m 1627.9969,253.33883 h -63.9546 v -21.31818 h 21.3182 V 125.42973 h -21.3182 v -21.31815 h 42.6364 v 127.90907 h 21.3182 z"
         style="font-style:normal;font-variant:normal;font-weight:normal;font-stretch:normal;font-family:'ProFont for Powerline';-inkscape-font-specification:'ProFont for Powerline';fill:#ce4141;fill-opacity:1;stroke-width:6.39545536"
         id="path5107"
         inkscape:connector-curvature="0" />
    </g>
  </g>
</svg>
